<?xml version="1.0" encoding="UTF-8" standalone="no"?>
<!-- Created with Inkscape (http://www.inkscape.org/) -->

<svg
   width="693.32233"
   height="136.04333"
   viewBox="0 0 183.44152 35.994799"
   version="1.1"
   id="svg5"
   sodipodi:docname="logo2.svg"
   inkscape:version="1.2.2 (b0a8486541, 2022-12-01)"
   xmlns:inkscape="http://www.inkscape.org/namespaces/inkscape"
   xmlns:sodipodi="http://sodipodi.sourceforge.net/DTD/sodipodi-0.dtd"
   xmlns="http://www.w3.org/2000/svg"
   xmlns:svg="http://www.w3.org/2000/svg">
  <sodipodi:namedview
     id="namedview7"
     pagecolor="#ffffff"
     bordercolor="#000000"
     borderopacity="0.25"
     inkscape:showpageshadow="2"
     inkscape:pageopacity="0.0"
     inkscape:pagecheckerboard="0"
     inkscape:deskcolor="#d1d1d1"
     inkscape:document-units="mm"
     showgrid="false"
     inkscape:zoom="1.1061539"
     inkscape:cx="376.07787"
     inkscape:cy="142.83727"
     inkscape:window-width="1920"
     inkscape:window-height="1048"
     inkscape:window-x="0"
     inkscape:window-y="16"
     inkscape:window-maximized="1"
     inkscape:current-layer="layer1" />
  <defs
     id="defs2">
    <inkscape:path-effect
       effect="join_type"
       id="path-effect1535"
       is_visible="true"
       lpeversion="1"
       linecap_type="peak"
       line_width="1.4"
       linejoin_type="extrp_arc"
       miter_limit="100"
       attempt_force_join="true" />
    <inkscape:path-effect
       effect="sketch"
       id="path-effect1533"
       is_visible="true"
       lpeversion="1"
       nbiter_approxstrokes="1"
       strokelength="500"
       strokelength_rdm="0.3;1132462078"
       strokeoverlap="0.3"
       strokeoverlap_rdm="0.3;1"
       ends_tolerance="0.1;1"
       parallel_offset="5;1"
       tremble_size="5;1"
       tremble_frequency="1"
       nbtangents="5"
       tgt_places_rdmness="1;1"
       tgtscale="10"
       tgtlength="100"
       tgtlength_rdm="0.3;1" />
    <rect
       x="0.79450536"
       y="-0.76012957"
       width="889.61377"
       height="242.67259"
       id="rect1277" />
  </defs>
  <g
     inkscape:label="Layer 1"
     inkscape:groupmode="layer"
     id="layer1"
     transform="translate(-1.7566786,-6.3574338)">
    <g
       id="g1531">
      <path
         d="m 2.5534731,35.365735 h 1.3716 L 5.715773,21.649734 c 0.4191,-3.3528 3.40995,-4.9149 6.64845,-4.9149 3.10515,0 4.8006,1.7145 4.4196,4.6101 l -1.8288,14.020801 h 1.39065 l 1.88595,-14.592301 c 0.43815,-3.2385 -2.0193,-5.4864 -5.6388,-5.4864 -2.9718,0 -5.39115,1.4478 -6.5913,3.3147 L 7.506473,7.0574338 h -1.27635 z"
         id="path1486"
         style="font-style:italic;font-weight:100;font-size:144px;font-family:'Public Sans';-inkscape-font-specification:'Public Sans Thin Italic';letter-spacing:-9px;white-space:pre;fill:#050000;stroke-width:0.296598" />
      <path
         d="m 19.603281,41.652234 c 2.1717,0 3.9624,-0.9525 5.2197,-3.429 l 11.087099,-22.5552 h -1.3335 l -8.686799,17.564101 -3.8862,-17.564101 h -1.4859 l 4.3434,19.583401 -1.2954,2.6289 c -0.6858,1.371599 -1.7526,2.438399 -4.0005,2.438399 h -1.9431 l -0.1524,1.0287 c 0,0 0.381,0.3048 2.1336,0.3048 z"
         id="path1488"
         style="font-style:italic;font-weight:100;font-size:144px;font-family:'Public Sans';-inkscape-font-specification:'Public Sans Thin Italic';letter-spacing:-9px;white-space:pre;fill:#050000;stroke-width:0.296598" />
      <path
         d="m 34.900436,41.499834 h 1.4097 l 1.3335,-10.306049 c 0.36195,1.50495 1.524,4.55295 5.715,4.55295 5.276849,0 8.324849,-4.2291 9.143999,-10.591801 0.8763,-6.7056 -1.80975,-9.8679 -6.476999,-9.8679 -4.191,0 -6.1722,3.0099 -6.87705,4.4196 l 0.43815,-4.0386 h -1.3335 z m 8.6487,-7.162799 c -4.13385,0 -5.8674,-3.81 -5.1816,-9.029701 0.66675,-5.2197 3.3528,-8.5725 7.4676,-8.5725 4.267199,0 5.848349,3.429 5.162549,8.5725 -0.78105,6.134101 -3.67665,9.029701 -7.448549,9.029701 z"
         id="path1490"
         style="font-style:italic;font-weight:100;font-size:144px;font-family:'Public Sans';-inkscape-font-specification:'Public Sans Thin Italic';letter-spacing:-9px;white-space:pre;fill:#050000;stroke-width:0.296598" />
      <path
         d="m 61.132317,35.746735 c 3.2766,0 6.5913,-1.80975 7.8486,-5.6388 h -1.4859 c -0.8001,2.5908 -3.25755,4.191 -6.15315,4.191 -4.62915,0 -6.0579,-3.9624 -5.42925,-8.420101 h 13.88745 l 0.13335,-1.0668 c 0.85725,-6.0579 -1.42875,-9.525 -6.1341,-9.525 -5.0292,0 -8.43915,3.8862 -9.35355,10.4013 -0.9144,6.438901 1.88595,10.058401 6.68655,10.058401 z m -4.9911,-11.315701 c 0.4953,-3.6957 2.9337,-7.6962 7.4295,-7.6962 4.1148,0 5.58165,3.3147 4.953,7.6962 z"
         id="path1492"
         style="font-style:italic;font-weight:100;font-size:144px;font-family:'Public Sans';-inkscape-font-specification:'Public Sans Thin Italic';letter-spacing:-9px;white-space:pre;fill:#050000;stroke-width:0.296598" />
      <path
         d="m 71.819354,35.365735 h 1.39065 l 1.92405,-13.716001 c 0.55245,-3.9243 3.8481,-4.8006 5.58165,-4.8006 0.51435,0 1.4859,0.09525 1.9431,0.3429 l 0.20955,-1.524 c -0.4191,-0.2667 -1.20015,-0.381 -1.92405,-0.381 -1.7526,0 -4.17195,0.6477 -5.4864,3.3147 l 0.40005,-2.9337 h -1.2573 z"
         id="path1494"
         style="font-style:italic;font-weight:100;font-size:144px;font-family:'Public Sans';-inkscape-font-specification:'Public Sans Thin Italic';letter-spacing:-9px;white-space:pre;fill:#050000;stroke-width:0.296598" />
      <path
         d="m 86.449788,10.105434 h 1.6764 l 0.3048,-2.2860002 h -1.6764 z m -3.429,25.260301 h 1.4097 l 2.76225,-19.697701 h -1.39065 z"
         style="font-style:italic;font-weight:100;font-size:144px;font-family:'Public Sans';-inkscape-font-specification:'Public Sans Thin Italic';letter-spacing:-8.5px;white-space:pre;fill:#050000;stroke-width:0.296598"
         id="path1496" />
      <path
         d="m 89.572964,35.365735 h 1.35255 l 1.9431,-13.716001 c 0.4953,-3.5433 3.5052,-4.9149 5.7912,-4.9149 2.000246,0 4.248146,1.4097 3.848096,4.3053 l -1.9812,14.325601 h 1.3335 l 1.92405,-13.716001 c 0.55245,-3.8862 3.71475,-4.9149 5.81025,-4.9149 2.3622,0 4.3434,1.1049 3.67665,5.8674 l -1.77165,12.763501 h 1.3335 l 1.7907,-12.763501 c 0.9144,-6.3246 -2.4003,-7.3152 -4.8387,-7.3152 -2.4384,0 -4.6101,1.2192 -6.03885,3.2766 -0.47625,-2.1336 -2.76225,-3.2766 -4.857746,-3.2766 -2.8194,0 -4.59105,1.5621 -5.715,3.3147 l 0.40005,-2.9337 h -1.23825 z"
         style="font-style:italic;font-weight:100;font-size:144px;font-family:'Public Sans';-inkscape-font-specification:'Public Sans Thin Italic';letter-spacing:-8.5px;white-space:pre;fill:#050000;stroke-width:0.296598"
         id="path1498" />
      <path
         d="m 116.48956,41.499834 h 1.4097 l 1.3335,-10.306049 c 0.36195,1.50495 1.524,4.55295 5.715,4.55295 5.27685,0 8.32485,-4.2291 9.144,-10.591801 0.8763,-6.7056 -1.80975,-9.8679 -6.477,-9.8679 -4.191,0 -6.1722,3.0099 -6.87705,4.4196 l 0.43815,-4.0386 h -1.3335 z m 8.6487,-7.162799 c -4.13385,0 -5.8674,-3.81 -5.1816,-9.029701 0.66675,-5.2197 3.3528,-8.5725 7.4676,-8.5725 4.2672,0 5.84835,3.429 5.16255,8.5725 -0.78105,6.134101 -3.67665,9.029701 -7.44855,9.029701 z"
         style="font-style:italic;font-weight:100;font-size:144px;font-family:'Public Sans';-inkscape-font-specification:'Public Sans Thin Italic';letter-spacing:-8.5px;white-space:pre;fill:#050000;stroke-width:0.296598"
         id="path1500" />
      <path
         d="m 142.54893,35.746735 c 5.31495,0 8.32485,-4.0767 9.12495,-10.172701 0.89535,-6.99135 -1.7907,-10.287 -6.45795,-10.287 -5.39115,0 -8.43915,4.1148 -9.23925,10.287 -0.9144,6.915151 1.8288,10.172701 6.57225,10.172701 z m 0.1905,-1.4097 c -4.40055,0 -6.00075,-3.5052 -5.31495,-8.763001 0.78105,-6.0198 3.71475,-8.8392 7.60095,-8.8392 4.32435,0 5.9055,3.5433 5.2197,8.8392 -0.78105,5.962651 -3.6957,8.763001 -7.5057,8.763001 z"
         style="font-style:italic;font-weight:100;font-size:144px;font-family:'Public Sans';-inkscape-font-specification:'Public Sans Thin Italic';letter-spacing:-8.5px;white-space:pre;fill:#050000;stroke-width:0.296598"
         id="path1502" />
      <path
         d="m 159.02614,35.746735 c 4.32435,0 6.6675,-2.2098 7.1247,-5.5245 0.3048,-2.0955 -0.40005,-4.019551 -2.95275,-4.819651 l -4.1529,-1.2954 c -1.96215,-0.6096 -3.02895,-1.50495 -2.7813,-3.29565 0.381,-2.7813 2.49555,-4.0767 5.3721,-4.0767 2.76225,0 4.0386,1.50495 3.9624,3.7719 h 1.46685 c 0.32385,-3.5433 -1.80975,-5.2197 -5.23875,-5.2197 -4.24815,0 -6.5532,2.2098 -7.0104,5.5245 -0.36195,2.6289 1.1049,3.98145 3.63855,4.78155 l 4.17195,1.295401 c 1.6002,0.51435 2.3241,1.58115 2.07645,3.40995 -0.381,2.72415 -2.5146,4.0005 -5.46735,4.0005 -3.2385,0 -4.81965,-1.6764 -4.93395,-4.191 h -1.46685 c -0.13335,3.82905 2.3622,5.6388 6.19125,5.6388 z"
         style="font-style:italic;font-weight:100;font-size:144px;font-family:'Public Sans';-inkscape-font-specification:'Public Sans Thin Italic';letter-spacing:-8.5px;white-space:pre;fill:#050000;stroke-width:0.296598"
         id="path1504" />
      <path
         d="m 175.52236,35.746735 c 3.2766,0 6.5913,-1.80975 7.8486,-5.6388 h -1.4859 c -0.8001,2.5908 -3.25755,4.191 -6.15315,4.191 -4.62915,0 -6.0579,-3.9624 -5.42925,-8.420101 h 13.88745 l 0.13335,-1.0668 c 0.85725,-6.0579 -1.42875,-9.525 -6.1341,-9.525 -5.0292,0 -8.43915,3.8862 -9.35355,10.4013 -0.9144,6.438901 1.88595,10.058401 6.68655,10.058401 z m -4.9911,-11.315701 c 0.4953,-3.6957 2.9337,-7.6962 7.4295,-7.6962 4.1148,0 5.58165,3.3147 4.953,7.6962 z"
         style="font-style:italic;font-weight:100;font-size:144px;font-family:'Public Sans';-inkscape-font-specification:'Public Sans Thin Italic';letter-spacing:-8.5px;white-space:pre;fill:#050000;stroke-width:0.296598"
         id="path1506" />
    </g>
  </g>
</svg>
